<?xml version="1.0" encoding="utf-8" ?>
<svg xmlns="http://www.w3.org/2000/svg" xmlns:xlink="http://www.w3.org/1999/xlink" width="255" height="239">
	<path fill="#1B2139" d="M72.8129 19.2607Q73.3452 19.2115 73.8797 19.2117C76.2513 19.227 77.7432 20.3523 79.3316 21.9656C79.913 23.8366 80.1622 25.4104 79.4513 27.3262C78.743 29.2349 77.4036 30.4069 75.5941 31.2302C74.8773 31.2392 74.1468 31.2473 73.4423 31.0996C71.8345 30.7623 70.3956 29.8536 69.5258 28.4427C68.6678 27.0509 68.4281 25.2837 68.8474 23.707C69.4539 21.4267 70.8666 20.3493 72.8129 19.2607Z"/>
	<path fill="#1B2139" d="M177.778 19.2951C178.784 19.1332 179.814 19.0824 180.804 19.3649C182.232 19.7723 183.427 20.622 184.127 21.9484C184.904 23.4203 184.928 25.2432 184.417 26.805C183.705 28.984 182.378 30.2287 180.38 31.2234C179.531 31.3366 178.696 31.3266 177.862 31.103C175.648 30.5099 174.551 28.7783 173.506 26.8982C173.467 25.8211 173.397 24.5883 173.669 23.5452C174.233 21.3833 176.003 20.3746 177.778 19.2951Z"/>
	<path fill="#1B2139" d="M177.286 210.046C178.468 209.889 179.699 209.915 180.831 210.32Q181.105 210.417 181.369 210.542Q181.632 210.666 181.882 210.816Q182.132 210.966 182.365 211.14Q182.599 211.314 182.814 211.51Q183.029 211.706 183.224 211.923Q183.418 212.14 183.59 212.375Q183.762 212.61 183.91 212.861Q184.058 213.112 184.18 213.376C184.854 214.837 184.866 216.602 184.303 218.1C183.67 219.787 182.374 221.103 180.75 221.846C179.079 222.196 177.642 221.782 176.044 221.33C175.675 220.983 175.304 220.628 174.975 220.241C173.225 218.182 173.408 215.994 173.569 213.482C174.644 211.968 175.573 210.886 177.286 210.046Z"/>
	<path fill="#1B2139" d="M73.4982 210.026C74.94 209.852 76.4252 209.967 77.7081 210.71C79.5492 211.776 80.1347 213.647 80.6388 215.568C80.373 216.406 80.1194 217.274 79.7706 218.081C78.8816 220.137 77.6285 221.288 75.5722 222.124C75.0799 222.275 74.6657 222.268 74.1608 222.202C71.8854 221.905 70.7085 220.756 69.3623 219.016C69.0495 217.147 68.8594 215.386 69.6041 213.581C70.3208 211.844 71.8205 210.746 73.4982 210.026Z"/>
	<path fill="#1B2139" d="M12.9425 112.798C14.4638 112.69 16.1745 113.001 17.5329 113.696Q17.8357 113.847 18.1215 114.028Q18.4073 114.21 18.6731 114.419Q18.939 114.629 19.1821 114.864Q19.4253 115.1 19.6432 115.358Q19.861 115.617 20.0514 115.897Q20.2418 116.177 20.4027 116.475Q20.5636 116.773 20.6933 117.085Q20.823 117.398 20.9202 117.722Q21.0222 118.08 21.0887 118.446Q21.1553 118.812 21.1856 119.183Q21.216 119.554 21.21 119.927Q21.204 120.299 21.1615 120.669Q21.1191 121.038 21.0408 121.402Q20.9624 121.766 20.8488 122.121Q20.7353 122.475 20.5876 122.817Q20.4399 123.158 20.2595 123.484C19.1193 125.525 17.4726 126.455 15.3102 127.088C15.2765 127.098 15.2432 127.109 15.2091 127.118C13.8674 127.461 11.6055 126.838 10.4499 126.101C8.8703 125.093 7.81206 123.45 7.40885 121.635C6.96979 119.658 7.22934 117.417 8.34237 115.698C9.47008 113.957 10.9736 113.235 12.9425 112.798Z"/>
	<path fill="#A3DEF8" d="M13.2601 117.51C13.5355 117.491 13.8612 117.45 14.1373 117.486C14.7208 117.562 14.9926 117.759 15.3422 118.223C15.6829 118.674 15.7251 119.255 15.6482 119.795C15.475 121.012 15.0051 121.517 14.0516 122.26C13.4214 122.135 13.0006 121.965 12.5802 121.475C12.1035 120.92 11.951 120.241 12.0233 119.523C12.1212 118.55 12.5259 118.113 13.2601 117.51Z"/>
	<path fill="#1B2139" d="M237.925 112.32C240.28 112.142 242.231 111.997 244.334 113.332Q244.648 113.53 244.94 113.759Q245.232 113.987 245.5 114.244Q245.769 114.5 246.01 114.782Q246.251 115.064 246.463 115.369Q246.675 115.674 246.855 115.998Q247.036 116.322 247.183 116.662Q247.331 117.003 247.443 117.356Q247.556 117.71 247.633 118.073C248.067 120.134 247.58 122.39 246.412 124.132C245.322 125.759 243.707 126.905 241.797 127.305C241.769 127.323 241.742 127.344 241.712 127.358C240.824 127.796 238.823 127.582 237.907 127.307C235.984 126.731 234.278 125.266 233.35 123.492Q233.167 123.135 233.02 122.761Q232.874 122.387 232.764 122.001Q232.655 121.615 232.584 121.22Q232.513 120.825 232.482 120.425Q232.45 120.025 232.458 119.623Q232.465 119.222 232.512 118.823Q232.56 118.425 232.646 118.033Q232.732 117.641 232.856 117.259C233.704 114.721 235.661 113.451 237.925 112.32Z"/>
	<path fill="#88BAE6" d="M239.026 116.499C239.512 116.489 240.046 116.461 240.52 116.581C241.407 116.806 242.214 117.536 242.674 118.308C242.984 118.828 243.115 119.486 242.918 120.071C242.644 120.884 242.087 121.284 241.353 121.651C241.129 121.822 240.876 122.027 240.613 122.137C240.029 122.381 239.688 122.327 239.127 122.099C238.577 121.501 238.379 120.925 238.26 120.126C238.067 118.829 238.242 117.566 239.026 116.499Z"/>
	<path fill="#1B2139" d="M124.605 6.33256C125.815 6.09859 127.266 6.10539 128.498 6.15794C133.56 6.37394 138.343 8.90302 141.737 12.6099C146.323 17.6184 146.914 23.3243 146.628 29.7975C149.265 31.0123 151.732 32.6554 154.268 34.0711C161.105 37.8877 167.837 41.8356 174.612 45.7576C182.04 50.0578 190.293 53.8197 197.099 59.0594C199.381 56.5044 201.739 54.3753 205.008 53.1716C209.993 51.336 216.264 51.6994 221.07 53.9169Q221.931 54.3074 222.748 54.7811Q223.566 55.2548 224.333 55.8069Q225.1 56.3591 225.808 56.9845Q226.517 57.6098 227.16 58.3021Q227.804 58.9944 228.375 59.7469Q228.947 60.4994 229.441 61.3047Q229.936 62.1101 230.348 62.9603Q230.761 63.8106 231.087 64.6975C232.867 69.6055 232.696 74.8049 230.469 79.5245C228.578 83.5329 225.659 87.3634 221.402 88.9935C219.626 89.6736 217.755 90.0257 215.962 90.6654C216.173 98.6175 215.95 106.633 215.941 114.592C215.929 125.837 216.051 137.1 215.737 148.341C219.58 148.766 223.373 150.377 226.163 153.074C230.228 157.002 232.275 162.074 232.369 167.696C232.456 172.884 230.304 178.018 226.694 181.733C222.964 185.571 217.83 187.45 212.517 187.517C206.731 187.59 201.502 185.237 197.399 181.221C192.469 183.335 187.949 186.37 183.304 189.027C171.068 196.028 159.044 203.609 146.512 210.057C147.147 215.277 146.573 220.376 143.696 224.873C140.714 229.534 136.568 231.994 131.246 233.171C129.352 233.581 127.294 233.61 125.37 233.438C119.657 232.927 114.759 230.433 111.097 225.998C107.21 221.29 106.789 215.975 107.332 210.109C105.658 209.384 104.086 208.236 102.486 207.346L92.2762 201.756L55.8628 181.225C53.8369 183.306 51.6407 184.918 48.8768 185.888C43.9778 187.607 37.5334 187.362 32.8473 185.096C28.375 182.933 24.3848 179.178 22.7434 174.408C21.092 169.608 21.4855 163.345 23.7101 158.79C27.0237 152.004 31.0766 150.687 37.7475 148.393C37.3211 138.435 37.6586 128.473 37.5902 118.513C37.5272 109.338 36.9357 99.9968 37.6335 90.8492C33.6298 89.7143 29.9208 87.8476 27.0238 84.8149C23.1697 80.7803 21.8253 75.9881 21.9535 70.4978C22.0738 65.3459 24.2606 60.919 27.9904 57.3836C31.8351 53.7393 36.8768 51.9631 42.1501 52.1102Q42.6606 52.1194 43.1699 52.1542Q43.6793 52.189 44.1862 52.2492Q44.6932 52.3095 45.1965 52.3951Q45.6998 52.4807 46.1982 52.5914Q46.6966 52.7021 47.1888 52.8376Q47.6811 52.9732 48.1659 53.1332Q48.6507 53.2933 49.1269 53.4774Q49.603 53.6615 50.0694 53.8693Q50.5358 54.077 50.9911 54.3079Q51.4465 54.5387 51.8897 54.7921Q52.3329 55.0455 52.7629 55.3208Q53.1929 55.5961 53.6085 55.8925Q54.0241 56.189 54.4244 56.506Q54.8246 56.8229 55.2085 57.1595Q55.5924 57.4961 55.9589 57.8515Q56.3254 58.2069 56.6737 58.5802C62.6386 54.4703 69.1059 51.2337 75.3576 47.5936C85.8675 41.4741 96.3718 35.0081 107.326 29.721C107.014 23.7938 107.09 18.9989 110.798 14.0328C114.319 9.3162 118.86 7.14576 124.605 6.33256ZM98.5948 138.946C85.8033 146.146 73.2573 153.713 60.3774 160.771C61.1313 165.581 61.6545 170.536 59.8001 175.179L94.093 194.335L104.491 200.205C106.486 201.322 108.598 202.346 110.491 203.627C112.362 199.897 115.766 197.482 119.677 196.199C120.887 195.803 122.227 195.441 123.494 195.3C122.897 181.102 123.839 166.854 123.762 152.651C114.982 149.104 106.928 143.441 98.5948 138.946ZM154.785 139.109C149.457 141.847 144.409 145.193 139.189 148.133C136.454 149.673 133.398 150.838 130.76 152.504C130.356 152.759 130.15 153.14 129.952 153.562C130.562 155.716 130.383 162.133 130.055 164.489C130.403 167.886 130.192 171.488 130.193 174.91Q130.142 184.767 130.306 194.622C136.142 195.973 140.68 198.468 144.054 203.562C147.91 200.523 152.663 198.472 156.904 196.025C165.798 190.892 174.541 185.499 183.478 180.433C186.763 178.571 190.33 177.238 193.561 175.29C191.802 170.613 191.552 165.487 193.535 160.83L154.785 139.109ZM110.336 36.2399C106.77 37.8413 103.369 39.8976 99.9412 41.7761C91.7717 46.2534 83.7826 50.9528 75.7196 55.6141C70.7136 58.5081 65.5939 61.5924 60.385 64.0983C61.1121 68.9043 61.5949 73.4278 60.1496 78.1528C65.5539 80.8064 70.8216 83.7956 76.0449 86.7871C78.5466 88.2199 81.2611 89.58 83.6209 91.2177C88.8522 94.3612 95.2265 96.8992 99.7334 101.02C105.613 96.3046 112.351 92.4243 118.942 88.7775C120.498 87.9169 122.288 87.3375 123.78 86.4253C123.745 83.0114 123.496 79.6015 123.438 76.1853Q123.359 66.195 123.387 56.2041C123.381 52.2758 123.162 48.2849 123.42 44.3668C119.254 43.6719 114.487 41.5324 111.938 38.0186C111.529 37.4558 111.072 36.4197 110.336 36.2399ZM196.558 84.4648C187.048 89.2828 177.854 94.7504 168.63 100.088C165.011 102.183 160.95 104.027 157.508 106.349L157.531 123.002C157.536 126.131 157.419 129.319 157.623 132.439Q169.205 138.636 180.543 145.269C185.948 148.205 192.129 151.133 196.982 154.903C200.511 150.385 203.98 149.539 209.267 148.116C208.494 141.075 208.96 133.553 208.982 126.459L209.094 90.886C204.468 90.0457 200.216 87.9986 197 84.529L196.558 84.4648ZM56.5041 84.3571C52.9212 88.4726 49.8248 89.0614 44.757 90.3357L44.7041 121.936C44.692 130.748 44.8265 139.594 44.5081 148.401C49.6648 149.603 53.2524 151.124 57.169 154.748C62.8084 150.786 69.0654 147.605 75.0889 144.268C78.7701 142.228 82.3308 139.983 86.0339 137.979C88.9805 136.385 93.7197 134.311 96.2781 132.565C96.1495 128.557 95.8671 124.408 96.2448 120.408C96.2305 115.89 96.0571 111.179 96.6888 106.694C92.5606 105.082 86.7105 101.35 82.6236 99.0634Q69.5025 91.8192 56.5041 84.3571ZM143.278 36.3533C140.734 40.5621 136.014 42.9602 131.358 44.0991Q130.662 44.2684 129.962 44.4215C130.363 48.3261 130.183 52.3294 130.177 56.252L130.099 75.2576C130.066 79.0037 129.8 82.9539 130.302 86.6743C136.453 89.4587 142.203 93.1057 147.958 96.6124C150.108 97.9223 152.473 99.0627 154.483 100.574C158.182 97.7683 162.302 95.531 166.311 93.2076C167.754 92.3714 169.315 91.2587 170.851 90.6347C178.276 86.3082 185.656 81.7598 193.378 77.9795C191.733 74.4853 191.677 69.4119 193.001 65.7994C193.101 65.5241 193.214 65.2576 193.347 64.9963C188.84 61.6888 183.422 59.2427 178.558 56.4816C169.264 51.2061 160.07 45.7977 150.705 40.6419C148.357 39.3494 145.753 37.2455 143.278 36.3533ZM124.992 94.4726C124.86 96.829 125.115 99.9002 123.205 101.589C120.072 104.361 111.545 107.045 109.525 109.742C108.8 110.709 108.606 112.036 108.514 113.212C108.288 116.119 107.619 128.723 109.236 130.751C109.846 131.517 110.77 132.172 111.587 132.699C114.123 134.333 116.989 135.503 119.601 137.026C121.525 138.148 123.218 139.641 125.172 140.689C125.961 141.111 126.889 141.646 127.794 141.7C128.083 141.717 128.366 141.701 128.652 141.655C132.009 139.38 142.608 132.959 144.833 130.301C145.382 129.645 145.61 128.751 145.767 127.93C146.379 124.721 146.329 113.402 145.646 110.216C140.697 106.159 134.356 104.738 129.344 100.85C129.013 99.267 129.031 95.6811 127.638 94.783C126.949 94.339 125.79 94.4614 124.992 94.4726Z"/>
	<path fill="#88BAE6" d="M132.494 18.7885C134.583 20.9017 135.919 23.3986 135.879 26.4545C135.848 28.916 134.855 31.1676 133.082 32.8706C131.534 34.358 129.436 35.3962 127.252 35.2989C125.152 35.2053 123.143 34.0078 121.656 32.5744C123.454 29.506 127.097 28.7997 129.31 26.0567C131.035 23.9183 131.04 21.1972 132.393 18.951C132.426 18.8964 132.461 18.8427 132.494 18.7885Z"/>
	<path fill="#88BAE6" d="M47.2275 64.7606C49.1291 66.7217 50.4386 68.9652 50.3916 71.7911C50.3516 74.1898 49.4502 76.5942 47.7021 78.2665Q47.3631 78.5867 46.9941 78.872Q46.6252 79.1572 46.2299 79.4046Q45.8346 79.652 45.4168 79.8592Q44.999 80.0663 44.5627 80.2313Q44.1265 80.3962 43.6762 80.5173Q43.2258 80.6383 42.7657 80.7144Q42.3056 80.7904 41.8402 80.8206Q41.3749 80.8508 40.9088 80.835C38.849 80.7733 37.1045 80.0563 35.72 78.5002C35.4201 78.1631 35.0486 77.7185 34.8786 77.2975C36.0144 76.2858 37.5317 75.5558 38.8337 74.7666C43.2413 72.0945 45.1974 69.431 47.2275 64.7606Z"/>
	<path fill="#88BAE6" d="M218.2 64.3929C220.175 66.114 221.492 68.5821 221.646 71.2213C221.788 73.6574 220.895 75.99 219.257 77.7846Q218.956 78.1206 218.623 78.425Q218.29 78.7293 217.928 78.9991Q217.567 79.2688 217.18 79.5013Q216.793 79.7337 216.386 79.9266Q215.978 80.1194 215.553 80.2707Q215.128 80.422 214.69 80.5303Q214.252 80.6386 213.805 80.7028Q213.359 80.767 212.908 80.7865C210.576 80.8747 208.123 79.9628 206.433 78.3417Q205.771 77.6993 205.174 76.9967C205.197 76.9643 205.22 76.9314 205.244 76.8995C205.284 76.8464 205.327 76.7952 205.366 76.7417C206.937 74.6197 211.074 74.8428 213.368 73.2245C216.121 71.2829 217.638 67.6189 218.2 64.3929Z"/>
	<path fill="#88BAE6" d="M132.637 207.123C134.631 208.959 135.818 211.425 135.93 214.151C136.036 216.693 135.229 219.159 133.488 221.034C131.934 222.709 129.712 223.811 127.414 223.866C125.13 223.921 123.073 222.844 121.477 221.271C120.869 220.671 120.178 219.965 119.759 219.224C121.669 218.117 124.181 217.598 126.216 216.59C130.356 214.538 131.302 211.126 132.637 207.123Z"/>
	<path fill="#88BAE6" d="M216.94 159.877C219.282 161.419 220.962 163.203 221.54 166.055Q221.637 166.542 221.685 167.035Q221.733 167.529 221.733 168.025Q221.733 168.521 221.685 169.014Q221.636 169.508 221.539 169.994Q221.442 170.481 221.298 170.955Q221.154 171.43 220.965 171.888Q220.775 172.347 220.541 172.784Q220.307 173.222 220.032 173.634C218.701 175.608 216.627 177.194 214.257 177.642C212.303 178.011 210.302 177.48 208.686 176.346C207.881 175.78 207.016 175.141 206.337 174.428C206.488 174.269 206.461 174.313 206.557 174.171C208.6 171.161 212.566 171.207 214.911 168.47C216.946 166.093 217.21 162.852 216.94 159.877Z"/>
	<path fill="#FEFEFE" d="M119.759 219.224C118.882 217.806 118.189 216.613 117.936 214.925C117.612 212.762 118.095 210.738 119.422 208.988C120.956 206.966 123.361 205.416 125.898 205.082C128.402 204.751 130.681 205.599 132.637 207.123C131.302 211.126 130.356 214.538 126.216 216.59C124.181 217.598 121.669 218.117 119.759 219.224Z"/>
	<path fill="#FEFEFE" d="M34.8786 77.2975C33.7613 75.7252 32.8332 74.1969 32.4873 72.2581Q32.4123 71.8375 32.3798 71.4116Q32.3473 70.9856 32.3578 70.5585Q32.3682 70.1315 32.4215 69.7076Q32.4747 69.2837 32.5702 68.8673Q32.6657 68.4509 32.8026 68.0462Q32.9394 67.6415 33.1161 67.2526Q33.2929 66.8637 33.5078 66.4944Q33.7226 66.1252 33.9735 65.7794C35.2546 64.0008 37.2016 62.7269 39.3763 62.3822C42.3101 61.9173 44.9204 63.0577 47.2275 64.7606C45.1974 69.431 43.2413 72.0945 38.8337 74.7666C37.5317 75.5558 36.0144 76.2858 34.8786 77.2975Z"/>
	<path fill="#FEFEFE" d="M205.174 76.9967C204.495 75.7965 203.882 74.6803 203.57 73.3203C203.017 70.9117 203.373 68.5092 204.706 66.4147Q204.936 66.0461 205.201 65.7022Q205.466 65.3584 205.765 65.0427Q206.063 64.7271 206.392 64.4428Q206.72 64.1585 207.075 63.9084Q207.43 63.6582 207.809 63.4448Q208.187 63.2314 208.585 63.0568Q208.982 62.8822 209.395 62.7482Q209.809 62.6141 210.233 62.522C213.133 61.9014 215.801 62.799 218.2 64.3929C217.638 67.6189 216.121 71.2829 213.368 73.2245C211.074 74.8428 206.937 74.6197 205.366 76.7417C205.327 76.7952 205.284 76.8464 205.244 76.8995C205.22 76.9314 205.197 76.9643 205.174 76.9967Z"/>
	<path fill="#FEFEFE" d="M117.348 24.7598C117.794 23.3984 118.234 22.083 119.032 20.8779C120.413 18.7917 122.459 17.2597 124.944 16.8015C127.78 16.2788 130.205 17.1845 132.494 18.7885C132.461 18.8427 132.426 18.8964 132.393 18.951C131.04 21.1972 131.035 23.9183 129.31 26.0567C127.097 28.7997 123.454 29.506 121.656 32.5744C119.04 30.3689 118.074 27.9928 117.348 24.7598Z"/>
	<path fill="#FEFEFE" d="M206.337 174.428C205.142 173.244 204.131 171.89 203.564 170.293Q203.415 169.882 203.309 169.459Q203.202 169.035 203.139 168.603Q203.075 168.171 203.055 167.734Q203.035 167.298 203.059 166.862Q203.083 166.425 203.151 165.994Q203.218 165.562 203.329 165.14Q203.439 164.717 203.591 164.308Q203.743 163.898 203.936 163.506Q204.122 163.125 204.344 162.764Q204.567 162.403 204.824 162.066Q205.082 161.729 205.372 161.419Q205.661 161.11 205.981 160.831Q206.3 160.551 206.645 160.305Q206.991 160.059 207.359 159.849Q207.727 159.639 208.114 159.466Q208.501 159.293 208.904 159.16C211.592 158.254 214.44 158.606 216.94 159.877C217.21 162.852 216.946 166.093 214.911 168.47C212.566 171.207 208.6 171.161 206.557 174.171C206.461 174.313 206.488 174.269 206.337 174.428Z"/>
	<path fill="#F78924" d="M39.1578 158.538C40.8596 158.379 42.4345 158.316 44.0681 158.908C46.4325 159.764 48.2732 161.573 49.326 163.841Q49.5241 164.264 49.6787 164.704Q49.8333 165.144 49.9427 165.598Q50.0521 166.052 50.1152 166.514Q50.1784 166.977 50.1946 167.443Q50.2108 167.91 50.18 168.375Q50.1492 168.841 50.0716 169.301Q49.994 169.762 49.8704 170.212Q49.7469 170.662 49.5786 171.097C48.4555 174.069 46.2529 175.91 43.4273 177.155C41.5034 177.609 39.8696 177.405 38.0677 176.553C35.6745 175.42 33.7056 173.244 32.8413 170.74C31.9882 168.268 32.1518 165.367 33.3477 163.032C34.6036 160.581 36.6338 159.362 39.1578 158.538Z"/>
	<path fill="#1B2139" d="M127.037 106.721C128.813 107.272 138.599 112.404 139.68 113.464C140.396 114.166 139.721 126.144 139.671 127.839C135.356 129.39 131.321 132.18 127.336 134.436C125.771 134.496 116.533 129.15 114.505 128.083C114.859 123.365 114.759 118.522 114.785 113.789C117.612 111.048 123.385 108.119 127.037 106.721Z"/>
	<path fill="#1B2139" d="M154.898 59.813C157.159 59.5802 159.156 59.657 161.247 60.6903C163.766 61.9349 165.658 64.3546 166.508 67.0073C167.39 69.7599 167.158 72.9454 165.79 75.5031C164.261 78.3623 161.823 79.789 158.832 80.7102C156.809 80.8534 154.743 80.5403 152.92 79.6339C150.342 78.352 148.234 75.9586 147.344 73.2208C146.49 70.5982 146.564 67.6764 147.858 65.2115C149.353 62.363 151.907 60.7184 154.898 59.813Z"/>
	<path fill="#88BAE6" d="M155.733 64.465C155.922 64.4685 156.077 64.4745 156.262 64.5144C158.165 64.9238 160.274 66.065 161.273 67.7876C161.857 68.795 162.017 69.9188 161.69 71.0406C161.187 72.7686 159.702 73.5893 158.237 74.4144C157.607 74.5903 156.853 74.7067 156.201 74.6229C154.997 74.4681 153.762 74.0239 153.008 73.0249C152.237 72.0032 151.967 70.6532 152.175 69.4C152.55 67.1412 153.917 65.7175 155.733 64.465Z"/>
	<path fill="#1B2139" d="M67.2572 109.297C69.5336 109.132 71.5647 109.216 73.6219 110.352C76.0855 111.711 77.9149 114.214 78.6457 116.914C79.3764 119.613 79.0315 122.711 77.6368 125.144C76.0074 127.987 73.3738 129.427 70.3267 130.242C68.1988 130.337 66.135 129.958 64.2538 128.925C61.6394 127.489 59.809 125.053 59.006 122.197C58.2527 119.519 58.4293 116.626 59.8449 114.19C61.4837 111.369 64.2421 110.076 67.2572 109.297Z"/>
	<path fill="#F78924" d="M68.3249 114.534C68.9861 114.537 69.5488 114.629 70.17 114.866C71.3789 115.328 72.4652 116.192 72.9671 117.409Q73.0596 117.637 73.1288 117.874Q73.1981 118.11 73.2434 118.353Q73.2888 118.595 73.3097 118.84Q73.3307 119.086 73.327 119.332Q73.3234 119.579 73.2952 119.823Q73.267 120.068 73.2145 120.309Q73.162 120.55 73.0858 120.784Q73.0096 121.018 72.9104 121.244C72.1846 122.938 70.7745 123.951 69.1091 124.618C68.3879 124.451 67.7192 124.254 67.0739 123.881C65.5218 122.984 64.1522 121.569 63.7116 119.789C63.4515 118.737 63.6025 117.629 64.1897 116.713C65.1774 115.172 66.6609 114.87 68.3249 114.534Z"/>
	<path fill="#1B2139" d="M183.27 109.071C185.493 108.983 187.493 109.159 189.495 110.25Q189.942 110.498 190.363 110.79Q190.784 111.081 191.174 111.413Q191.563 111.745 191.918 112.114Q192.273 112.482 192.59 112.884Q192.907 113.286 193.182 113.718Q193.458 114.149 193.689 114.606Q193.92 115.062 194.105 115.54Q194.29 116.017 194.427 116.51C195.214 119.343 194.853 122.624 193.348 125.161C191.649 128.024 188.936 129.449 185.825 130.248C183.563 130.302 181.594 129.902 179.636 128.728Q179.166 128.449 178.727 128.125Q178.288 127.801 177.883 127.435Q177.478 127.068 177.112 126.663Q176.745 126.258 176.421 125.819Q176.097 125.379 175.819 124.91Q175.54 124.44 175.31 123.945Q175.079 123.45 174.899 122.934Q174.72 122.419 174.592 121.888C173.967 119.203 174.231 116.196 175.74 113.844C177.488 111.118 180.198 109.707 183.27 109.071Z"/>
	<path fill="#F78924" d="M183.582 114.268C183.889 114.279 184.196 114.301 184.499 114.357C186.015 114.635 187.524 115.428 188.378 116.746Q188.503 116.942 188.609 117.15Q188.714 117.357 188.798 117.575Q188.882 117.792 188.944 118.016Q189.005 118.241 189.044 118.47Q189.083 118.7 189.099 118.932Q189.115 119.164 189.108 119.397Q189.1 119.63 189.069 119.861Q189.039 120.091 188.985 120.318C188.517 122.278 187.131 123.373 185.476 124.374C184.967 124.348 184.505 124.274 184.024 124.099C182.354 123.489 180.84 122.245 180.121 120.597C179.64 119.494 179.589 118.258 180.057 117.142C180.714 115.572 182.101 114.885 183.582 114.268Z"/>
	<path fill="#1B2139" d="M94.6175 59.8021C97.0278 59.6089 99.1232 59.7704 101.311 60.9448Q101.775 61.1996 102.213 61.4981Q102.65 61.7967 103.057 62.1362Q103.464 62.4757 103.835 62.853Q104.207 63.2304 104.541 63.6419Q104.874 64.0534 105.166 64.4953Q105.458 64.9372 105.706 65.4053Q105.954 65.8734 106.156 66.3634Q106.357 66.8533 106.51 67.3604Q106.663 67.8687 106.765 68.3893Q106.868 68.91 106.919 69.4381Q106.97 69.9663 106.97 70.4969Q106.97 71.0276 106.919 71.5557Q106.867 72.0839 106.765 72.6046Q106.662 73.1252 106.51 73.6335Q106.357 74.1417 106.156 74.6328Q105.955 75.1238 105.707 75.593C104.223 78.3475 101.856 79.8124 98.9392 80.6532C96.7205 81.0335 94.6519 80.8399 92.5902 79.8738Q92.101 79.6479 91.6366 79.3747Q91.1721 79.1014 90.7371 78.7835Q90.302 78.4656 89.9006 78.1061Q89.4992 77.7466 89.1354 77.3491Q88.7716 76.9516 88.449 76.52Q88.1264 76.0884 87.8482 75.627Q87.5699 75.1656 87.3388 74.6788Q87.1077 74.1921 86.9259 73.6848C85.9799 70.9594 86.1433 67.7994 87.4238 65.208C88.9295 62.1609 91.5509 60.8071 94.6175 59.8021Z"/>
	<path fill="#F78924" d="M95.2297 65.0502C95.9453 65.0143 96.7901 64.9334 97.4872 65.1149C98.8051 65.4581 100.099 66.3592 100.79 67.5396C101.444 68.6559 101.576 69.9919 101.236 71.2333C100.73 73.0845 99.4104 74.3548 97.7842 75.263C96.9275 75.1639 95.9989 75.0889 95.1834 74.8007C93.8627 74.3339 92.6546 73.1071 92.0644 71.8541C91.5193 70.6966 91.3761 69.3833 91.8203 68.1694C92.4257 66.5147 93.7258 65.7626 95.2297 65.0502Z"/>
	<path fill="#1B2139" d="M156.069 158.814Q156.861 158.74 157.655 158.786Q158.45 158.832 159.228 158.997Q160.006 159.162 160.751 159.443Q161.495 159.723 162.189 160.113Q162.623 160.365 163.031 160.658Q163.438 160.952 163.815 161.284Q164.192 161.616 164.534 161.983Q164.877 162.35 165.181 162.749Q165.486 163.148 165.75 163.576Q166.014 164.003 166.235 164.454Q166.456 164.905 166.631 165.375Q166.807 165.846 166.935 166.331Q167.063 166.836 167.141 167.352Q167.219 167.867 167.245 168.387Q167.271 168.908 167.245 169.429Q167.219 169.949 167.142 170.465Q167.064 170.98 166.936 171.485Q166.808 171.99 166.63 172.48Q166.452 172.97 166.227 173.44Q166.001 173.91 165.73 174.355C164.079 177.066 161.632 178.521 158.635 179.271C155.958 179.261 153.581 178.952 151.309 177.379C148.977 175.765 147.415 173.455 146.933 170.652C146.489 168.068 146.887 165.321 148.449 163.166C150.336 160.564 152.987 159.339 156.069 158.814Z"/>
	<path fill="#F78924" d="M155.483 163.784C156.082 163.706 156.652 163.675 157.253 163.765C158.642 163.971 160.054 164.715 160.877 165.869C161.587 166.865 161.841 168.088 161.627 169.289C161.295 171.157 160.074 172.268 158.588 173.309C157.686 173.393 156.88 173.386 156.005 173.119C154.747 172.734 153.667 171.715 153.077 170.554C152.413 169.249 152.238 167.724 152.73 166.333C153.246 164.876 154.134 164.413 155.483 163.784Z"/>
	<path fill="#1B2139" d="M94.9369 158.798C97.2493 158.637 99.3668 158.777 101.492 159.824Q101.908 160.025 102.303 160.267Q102.697 160.51 103.065 160.79Q103.433 161.07 103.771 161.386Q104.109 161.702 104.413 162.05Q104.718 162.398 104.986 162.774Q105.255 163.151 105.484 163.553Q105.713 163.954 105.901 164.377Q106.089 164.8 106.234 165.239C107.136 167.96 106.915 171.121 105.581 173.664C103.943 176.787 101.295 178.265 98.0562 179.243Q97.2747 179.339 96.4877 179.318Q95.7006 179.297 94.9253 179.16Q94.15 179.023 93.4035 178.773Q92.6571 178.522 91.9559 178.164C89.4718 176.886 87.4686 174.601 86.646 171.92C85.8629 169.367 86.1302 166.364 87.4257 164.022C89.0654 161.057 91.8298 159.695 94.9369 158.798Z"/>
	<path fill="#88BAE6" d="M94.9708 164.049C95.5626 163.992 96.1463 163.966 96.7371 164.051C98.1301 164.252 99.7809 164.979 100.62 166.152Q100.834 166.449 100.983 166.783Q101.133 167.118 101.211 167.475Q101.29 167.833 101.294 168.199Q101.298 168.566 101.228 168.925C100.823 170.977 99.1236 171.992 97.5244 173.088C97.4407 173.136 97.357 173.184 97.2706 173.228C96.5124 173.608 95.8394 173.618 95.053 173.352C93.8383 172.941 92.8893 172.039 92.3248 170.897C91.7068 169.647 91.5461 168.161 92.037 166.84C92.5615 165.429 93.643 164.642 94.9708 164.049Z"/>
</svg>
